<?xml version="1.0" encoding="UTF-8"?>
<svg id="Layer_1" xmlns="http://www.w3.org/2000/svg" viewBox="0 0 1659.8 945.39">
  <defs>
    <style>
      .cls-1 {
        fill: #f6f6f6;
      }

      .cls-2 {
        fill: #313131;
      }

      .cls-3 {
        fill: #f8f8f8;
      }

      .cls-4 {
        fill: #fff;
      }

      .cls-5 {
        fill: #3c3c3c;
      }

      .cls-6 {
        fill: #323232;
      }

      .cls-7 {
        fill: #f7f7f7;
      }

      .cls-8 {
        fill: #343434;
      }

      .cls-9 {
        fill: #f5f5f5;
      }

      .cls-10 {
        fill: #fcfcfc;
      }

      .cls-11 {
        fill: #b7b7b7;
      }
    </style>
  </defs>
  <g>
    <path class="cls-4" d="M1219.09,915.74c-1.23-.07-1.77.03-2.17-.15-1.82-.83-3.64-1.67-5.38-2.64-33.82-18.9-53.27-47.85-59.86-85.74-1.21-6.98-5.06-10.59-10.75-9.77-5.78.83-8.58,5.47-7.32,12.48,5.88,32.95,20.52,61.11,46.28,82.87,32.88,27.78,71.78,35.83,113.31,31.5,48.98-5.1,85.75-30.71,111.93-71.91,11.95-18.8,19.81-39.56,27.76-60.24,10.4-27.04,20.83-54.04,35.19-79.36,18.81-33.17,41.97-63.26,65.24-93.29,27.28-35.2,53-71.45,73.29-111.26,40.73-79.91,59.71-164.21,51.2-254.07-4.48-47.25-16.3-92.46-38.33-134.63-34.22-65.51-86.79-109.18-157.83-129.89-38.55-11.24-77.75-12.55-117.19-4.46-66.59,13.66-122,46.21-165.09,98.82-28.1,34.31-45.31,74.01-53.31,117.51-2.91,15.83-3.94,32.03-5.44,48.09-.57,6.08,3.23,10.06,8.48,10.21,5.37.15,8.51-3.36,8.86-9.79.24-4.49.55-8.98.89-13.46,2.99-40.01,14.18-77.58,34.54-112.16,29.26-49.69,71.47-84.79,124.28-107.08,65.12-27.49,130.4-27.44,194.74,2.36,61.84,28.64,101.94,77.57,125.66,140.38,22.92,60.69,29.31,123.53,20.81,187.78-8.97,67.76-32.39,130.56-69.01,187.97-20.57,32.24-43.71,62.92-66.86,93.43-32.28,42.54-60.78,87.04-79.9,137.22-8.64,22.69-17.22,45.62-28.47,67.05-22.43,42.69-57.13,69.09-106.63,73.07q-6.15.49-6.16-5.95c0-41.99.09-83.99-.11-125.98-.03-5.07.95-7.8,6.08-10.01,10.25-4.42,15.01-15.98,12.2-26.77-2.92-11.19-12.34-18.04-24.15-17.54-10.63.45-19.14,8.13-21.26,19.18-2.12,11.11,3.39,21.78,13.95,25.9,3.62,1.41,4.6,3.28,4.59,6.96-.1,43.5-.04,86.99-.04,130.49,0,1.44-.23,2.87-.37,4.54-14.89.65-28.83-2.37-42.56-6.49-1.17-.35-2.29-3.07-2.31-4.7-.19-13.83-.04-27.66-.18-41.5-.03-2.97.98-4.41,3.77-5.48,9.98-3.83,15.05-11.53,15.03-21.98-.01-10.54-5.64-17.88-15.29-21.92-2.56-1.07-3.59-2.36-3.5-5.13.18-5.66.34-11.35-.1-16.99-.2-2.55-1.19-5.58-2.9-7.37-13.9-14.61-27.93-29.09-42.2-43.33-3.37-3.36-4.68-6.69-4.68-11.38.08-55.66,0-111.33-.18-166.99,0-2.26-.66-5.17-2.14-6.68-14.6-14.86-29.43-29.49-44.22-44.15-1.35-1.34-2.9-2.46-4.91-4.14-.93,6.27-.91,10.87,3.7,15.26,11.95,11.37,23.25,23.41,35.05,34.94,3.01,2.94,4.14,5.89,4.14,10.04-.12,55.83-.05,111.66-.16,167.49,0,3.43.9,5.89,3.35,8.33,11.93,11.87,23.13,24.55,35.69,35.7,9.11,8.08,13.07,16.94,11.05,28.71-.03.16-.03.33,0,.5.33,2.73-.88,4.13-3.49,5.14-9.91,3.85-15.43,11.99-15.48,22.24-.04,10.03,5.37,17.96,15.3,21.76,2.64,1.01,3.62,2.32,3.59,5.04-.1,7.83,0,15.67,0,23.5,0,5.93,0,11.86,0,17.93ZM1220.78,253.96c.18-1.65.16-2.81.45-3.89,12.6-45.93,36.57-84.32,76.48-111.17,59.2-39.84,120.49-42.43,181.92-5.8,38.86,23.17,61.93,59.45,75.34,101.8,13.79,43.59,15.94,88.23,9.33,133.43-10.18,69.6-37.92,131.72-79.41,188.06-3.85,5.23-7.95,10.28-11.8,15.52-3.3,4.49-2.82,9.91.95,13,3.95,3.24,8.95,2.61,12.82-1.65.78-.86,1.55-1.76,2.2-2.72,14.39-21.41,30.01-42.11,42.88-64.4,32.18-55.71,49.92-116.06,52.98-180.42,2.43-51.14-5.92-100.19-30.01-146.02-40.3-76.69-122.94-114.9-206.4-93.04-65.56,17.17-110.31,59.55-135.23,122.11-19.91,49.98-22.57,101.67-10.33,154.08.48,2.05,1.3,4.17,2.51,5.87,2.4,3.38,6.01,4.25,9.8,2.98,4.05-1.35,5.34-4.85,5.17-8.77-.1-2.3-.86-4.57-1.31-6.86-1.12-5.62-2.24-11.24-3.36-16.9,6.7-.78,6.81-.71,10.32,3.1,4.85,5.27,10.38,10.05,14.51,15.83,7.98,11.15,17.97,16.45,31.73,13.75,3.26-.64,4.92.77,6.12,4.11,4.02,11.17,14.02,16.65,26.3,14.94,10.52-1.47,18.75-10.77,19.62-22.17.79-10.44-6.52-21.04-16.63-24.11-11.3-3.43-23.46.35-27.8,10.62-2.95,6.97-6.93,8.12-13.13,7.38-1.48-.18-3.02-.19-4.49.01-3.7.51-6.26-1.09-8.65-3.77-6.87-7.71-14.17-15.06-20.82-22.95-3.89-4.63-7.79-7.99-14.27-6.71-3.06.61-4.08-1.17-4.22-3.99-.3-6.16-.84-12.3-1.09-18.46-.05-1.13.47-2.81,1.3-3.34,2.99-1.9,15.27.14,17.78,2.75,5.54,5.77,11.14,11.49,16.5,17.42,2.3,2.55,4.71,3.67,8.21,3.61,8.83-.17,17.72-.53,26.48.33,8.8.86,15.88-.85,21.38-8.15,1.76-2.34,4.66-3.79,6.7-5.97,6.52-6.97,14.1-10.85,23.91-9.08.88.16,1.87-.28,2.71-.43q.86-7.83-6.58-7.84c-3.17,0-6.35-.18-9.49.08-1.68.14-3.61.66-4.89,1.68-4.31,3.4-8.8,6.72-12.46,10.77-8,8.86-17.63,10.72-29.3,10.98-13.49.3-24.05-2.72-31.58-14.07-6.2-9.34-14.57-13.46-25.76-11.36-.48.09-1-.04-1.5-.01-2.92.14-3.76-1.35-3.43-4.06,1.32-10.74,2.62-21.48,3.82-32.24.4-3.55,1.82-5.02,5.72-5,40.66.17,81.33.17,121.99.1,3.02,0,4.35,1.07,5.38,3.83,4.48,12.05,15.68,18.07,27.86,15.2,10.5-2.47,17.99-12.36,17.57-23.17-.47-11.98-8.49-20.97-20.47-22.95-10.52-1.74-21.26,4.2-24.73,14.25-1.23,3.57-3.03,4.38-6.48,4.37-39.33-.14-78.66-.15-117.99-.2-1.6,0-3.21-.17-5.11-.28ZM1456.73,460.66c-.91-8.09-1.55-16.22-2.84-24.25-.78-4.85-4.79-7.15-9.63-6.5-5.78.78-7.91,4.85-6.68,12.63,4.1,25.79.38,50.49-10.94,73.93-11.94,24.72-29.64,44.85-52.41,59.85-20.96,13.81-42.89,26.16-64.6,38.82-14.94,8.71-27.91,19.28-36.66,34.5-2.41,4.18-5.02,8.25-7.68,12.29-6.29,9.55-13.2,18.48-24.18,23.12-14.75,6.23-28.92-2.11-30.6-17.99-1.04-9.87,3.15-18.54,6.23-27.48,2.11-6.12,4.71-12.2,5.76-18.52.68-4.05,2.2-6.02,5.56-7.83,16.67-8.97,24.58-23.14,22.95-41.94-1.89-21.86-14.15-39.13-26.61-56.1-2.31-3.15-6.19-3.8-10.02-2.26-3.91,1.58-5.81,4.86-5.22,8.74.44,2.93,2.08,5.8,3.66,8.41,6.07,10.09,13.44,19.55,18.25,30.19,7.98,17.67,2.01,32.07-15.38,40.46-4.13,1.99-6.35,4.76-7.7,9.05-3.26,10.3-6.82,20.51-10.52,30.67-3.24,8.89-4.92,17.92-4.31,27.41,1.35,20.8,17.49,35.84,38.28,35.56,10.32-.14,19.54-3.34,28.05-9.15,9.9-6.77,16.87-16.14,22.95-26.08,11.86-19.42,27.62-34.07,47.9-44.71,25.51-13.38,50.36-27.97,72.02-47.42,34.37-30.87,53.81-68.51,54.37-115.4ZM1125.85,440.72c1.67,0,3.46,0,5.25,0,35.83,0,71.66-.06,107.48.11,2.3.01,5.17,1.28,6.79,2.92,8.89,9.01,17.59,18.22,26.11,27.58,2.48,2.73,5.01,3.69,8.64,3.66,20-.16,40,.01,59.99-.14,3.71-.03,5.51.98,6.83,4.69,5.3,14.97,23.83,19.92,36.17,9.93,7.67-6.2,10.71-16.39,7.66-25.65-2.97-9-10.72-15.02-20.03-15.56-11.75-.68-19.35,3.64-23.67,13.63-1.03,2.39-1.83,4.28-5.16,4.25-19.83-.16-39.66-.01-59.49-.19-1.9-.02-4.27-1.03-5.6-2.39-8.96-9.18-17.79-18.49-26.43-27.97-2.34-2.57-4.71-3.67-8.18-3.67-36.66.05-73.32-.06-109.98-.1-7.81,0-8.13.44-6.37,8.9ZM1527.85,292.25c.06,0,.11,0,.17,0,0-14,.04-28-.05-41.99-.01-1.75-.42-3.68-1.24-5.21-11.31-21.38-23.26-42.43-38.67-61.13-7.35-8.92-16.19-16.66-24.69-24.58-2.46-2.29-5.97-3.57-9.17-4.94-2.75-1.17-4.97-.11-5.74,2.91-.72,2.82-1.01,5.27,2.5,7.07,4.66,2.4,9.43,5.04,13.22,8.57,23.42,21.75,39.74,48.59,53.95,76.85.77,1.54.87,3.54.87,5.33.04,25.83-.06,51.66.08,77.49.02,3.97-.85,6.08-4.99,7.62-10.44,3.89-16.04,15.36-13.75,26.55,2.37,11.57,12,19.4,23.52,19.12,11.25-.27,20.67-8.37,22.75-19.58,2.13-11.44-3.87-22.95-14.54-26.57-3.76-1.28-4.29-3.21-4.26-6.52.12-13.66.05-27.33.05-40.99ZM1125.53,473.8c2.08,0,3.87,0,5.66,0,22.49-.01,44.98.04,67.47-.11,3.75-.02,6.51.99,9.2,3.74,23.08,23.55,46.38,46.89,69.42,70.49,3.95,4.05,7.81,7.03,13.77,5.95,3.35-.6,4.57,1.13,5.18,4.34.61,3.2,1.72,6.48,3.36,9.29,5.17,8.87,15.62,12.62,26.05,9.73,9.76-2.7,16.96-12.04,17.1-22.15.14-10.2-6.59-19.69-15.91-22.46-10.38-3.09-21.63.49-26.87,9.02-1.83,2.99-3.83,3.91-7.19,3.91-3.97,0-6.82-1.33-9.59-4.16-23.77-24.27-47.63-48.47-71.65-72.49-1.96-1.96-5.37-3.46-8.12-3.49-24.15-.25-48.31-.13-72.46-.1-1.77,0-3.54.18-5.42.28v8.23ZM1127.72,560.38c-2.15,7.11-2.09,12.62,3.63,16.91,3.43,2.57,6.41,5.87,9.09,9.25,1.51,1.9,2.72,4.6,2.78,6.98.29,10.99-.48,22.04.31,32.98.66,9.21-1.65,16.21-9.65,21.08-2.98,1.82-3.88,4.51-3.77,8.03.24,7.83-.19,15.67.13,23.49.18,4.37-.94,6.68-5.34,8.49-10.12,4.16-15.05,14.62-12.93,25.46,2.02,10.35,10.86,18.13,21.23,18.69,9.92.53,19.98-6.11,22.98-15.18,3.61-10.9.51-23.44-9.14-27.34-8.57-3.47-8.78-8.84-8.23-15.82.12-1.49.23-3.04-.03-4.49-1.76-10.09,2.02-17.62,10.11-23.57,1.55-1.14,2.79-3.79,2.82-5.76.23-16.83.18-33.66.13-50.5,0-1.43-.02-3.32-.86-4.23-7.65-8.26-15.49-16.34-23.27-24.48ZM1125.47,406.88c3.45,0,6.42,0,9.39,0,25.98,0,51.96-.03,77.94.03,4.54.01,8.43-1.01,9.78-5.82.43-1.52.04-4.06-.99-4.95-.94-.81-3.29-.16-4.97.11-3.06.49-6.09,1.67-9.14,1.7-25.15.18-50.29.15-75.44.21-2.11,0-4.23.17-6.57.28v8.46ZM1199.89,501.81c-5.33-3.02-7.99-8.97-14.92-8.9-18.48.19-36.96,0-55.45,0-1.28,0-2.57.23-3.9.35v7.82c2.14.11,3.93.28,5.73.27,13.15-.02,26.31.1,39.46-.18,8.78-.19,17.52-.86,23.28,7.99,2.05-2.6,3.68-4.67,5.8-7.35Z"/>
    <path d="M1219.09,915.74c0-6.07,0-12,0-17.93,0-7.83-.1-15.67,0-23.5.03-2.72-.95-4.03-3.59-5.04-9.93-3.8-15.34-11.74-15.3-21.76.04-10.26,5.57-18.39,15.48-22.24,2.61-1.01,3.82-2.41,3.49-5.14-.02-.16-.02-.34,0-.5,2.02-11.77-1.95-20.63-11.05-28.71-12.56-11.15-23.76-23.83-35.69-35.7-2.45-2.43-3.35-4.9-3.35-8.33.1-55.83.04-111.66.16-167.49,0-4.15-1.13-7.1-4.14-10.04-11.8-11.53-23.1-23.57-35.05-34.94-4.61-4.39-4.63-8.98-3.7-15.26,2.01,1.68,3.56,2.81,4.91,4.14,14.79,14.66,29.62,29.3,44.22,44.15,1.48,1.5,2.13,4.41,2.14,6.68.17,55.66.26,111.33.18,166.99,0,4.7,1.31,8.02,4.68,11.38,14.27,14.24,28.31,28.72,42.2,43.33,1.71,1.79,2.7,4.83,2.9,7.37.43,5.63.28,11.33.1,16.99-.09,2.77.94,4.06,3.5,5.13,9.64,4.04,15.28,11.38,15.29,21.92.01,10.45-5.06,18.15-15.03,21.98-2.79,1.07-3.8,2.5-3.77,5.48.14,13.83,0,27.67.18,41.5.02,1.63,1.14,4.35,2.31,4.7,13.73,4.11,27.67,7.14,42.56,6.49.14-1.67.37-3.1.37-4.54,0-43.5-.06-86.99.04-130.49,0-3.68-.97-5.55-4.59-6.96-10.56-4.12-16.07-14.79-13.95-25.9,2.11-11.05,10.62-18.73,21.26-19.18,11.81-.5,21.23,6.34,24.15,17.54,2.81,10.78-1.96,22.35-12.2,26.77-5.13,2.21-6.11,4.94-6.08,10.01.21,41.99.11,83.99.11,125.98q0,6.45,6.16,5.95c49.51-3.97,84.21-30.38,106.63-73.07,11.26-21.43,19.83-44.36,28.47-67.05,19.12-50.19,47.62-94.68,79.9-137.22,23.15-30.5,46.29-61.18,66.86-93.43,36.62-57.41,60.05-120.2,69.01-187.97,8.5-64.25,2.11-127.09-20.81-187.78-23.72-62.81-63.83-111.74-125.66-140.38-64.34-29.8-129.62-29.85-194.74-2.36-52.81,22.29-95.02,57.39-124.28,107.08-20.36,34.58-31.55,72.15-34.54,112.16-.34,4.49-.64,8.97-.89,13.46-.34,6.43-3.48,9.94-8.86,9.79-5.25-.15-9.05-4.13-8.48-10.21,1.5-16.07,2.53-32.26,5.44-48.09,8-43.49,25.21-83.2,53.31-117.51,43.09-52.61,98.5-85.16,165.09-98.82,39.44-8.09,78.64-6.78,117.19,4.46,71.03,20.71,123.61,64.39,157.83,129.89,22.03,42.17,33.85,87.38,38.33,134.63,8.51,89.85-10.47,174.16-51.2,254.07-20.29,39.8-46,76.05-73.29,111.26-23.27,30.03-46.43,60.12-65.24,93.29-14.36,25.32-24.79,52.32-35.19,79.36-7.95,20.68-15.82,41.44-27.76,60.24-26.18,41.2-62.94,66.81-111.93,71.91-41.52,4.32-80.42-3.73-113.31-31.5-25.76-21.76-40.4-49.93-46.28-82.87-1.25-7.02,1.55-11.65,7.32-12.48,5.69-.82,9.54,2.79,10.75,9.77,6.6,37.9,26.05,66.84,59.86,85.74,1.74.97,3.56,1.81,5.38,2.64.4.18.94.08,2.17.15ZM1291.33,764.06c.02-7.94-6.2-14.2-14.15-14.25-7.65-.04-13.57,6.09-13.62,14.1-.05,7.56,6.2,13.92,13.86,14.11,7.39.18,13.89-6.34,13.91-13.96ZM1223.49,861.3c7.58-.09,13.76-6.59,13.65-14.36-.11-7.48-6.84-13.92-14.36-13.76-7.28.16-13.42,6.65-13.4,14.14.03,7.53,6.62,14.06,14.11,13.97Z"/>
    <path d="M1220.78,253.96c1.9.11,3.5.28,5.11.28,39.33.06,78.66.06,117.99.2,3.45.01,5.25-.8,6.48-4.37,3.47-10.06,14.21-16,24.73-14.25,11.98,1.99,20,10.97,20.47,22.95.43,10.81-7.07,20.69-17.57,23.17-12.18,2.87-23.38-3.15-27.86-15.2-1.03-2.76-2.36-3.83-5.38-3.83-40.66.07-81.33.07-121.99-.1-3.9-.02-5.33,1.45-5.72,5-1.21,10.75-2.5,21.5-3.82,32.24-.33,2.71.51,4.2,3.43,4.06.5-.02,1.02.1,1.5.01,11.19-2.1,19.56,2.02,25.76,11.36,7.53,11.35,18.09,14.36,31.58,14.07,11.67-.26,21.31-2.12,29.3-10.98,3.65-4.05,8.15-7.37,12.46-10.77,1.29-1.02,3.21-1.54,4.89-1.68,3.14-.26,6.33-.08,9.49-.08q7.44,0,6.58,7.84c-.84.15-1.83.59-2.71.43-9.82-1.77-17.39,2.12-23.91,9.08-2.04,2.18-4.93,3.63-6.7,5.97-5.5,7.3-12.58,9.02-21.38,8.15-8.76-.86-17.65-.49-26.48-.33-3.49.07-5.9-1.05-8.21-3.61-5.35-5.94-10.96-11.65-16.5-17.42-2.51-2.61-14.78-4.64-17.78-2.75-.83.53-1.35,2.21-1.3,3.34.25,6.16.79,12.3,1.09,18.46.14,2.82,1.16,4.6,4.22,3.99,6.48-1.28,10.37,2.08,14.27,6.71,6.65,7.9,13.95,15.24,20.82,22.95,2.39,2.68,4.95,4.28,8.65,3.77,1.47-.2,3.01-.19,4.49-.01,6.21.74,10.19-.41,13.13-7.38,4.34-10.27,16.5-14.05,27.8-10.62,10.11,3.07,17.43,13.67,16.63,24.11-.87,11.4-9.1,20.7-19.62,22.17-12.27,1.71-22.28-3.77-26.3-14.94-1.2-3.33-2.85-4.75-6.12-4.11-13.76,2.7-23.75-2.6-31.73-13.75-4.14-5.78-9.66-10.56-14.51-15.83-3.51-3.81-3.63-3.88-10.32-3.1,1.13,5.66,2.24,11.28,3.36,16.9.46,2.29,1.21,4.56,1.31,6.86.17,3.92-1.13,7.42-5.17,8.77-3.79,1.26-7.4.4-9.8-2.98-1.21-1.7-2.03-3.82-2.51-5.87-12.24-52.4-9.58-104.09,10.33-154.08,24.92-62.56,69.67-104.94,135.23-122.11,83.46-21.86,166.1,16.35,206.4,93.04,24.09,45.83,32.44,94.88,30.01,146.02-3.06,64.36-20.8,124.71-52.98,180.42-12.87,22.29-28.5,42.99-42.88,64.4-.65.96-1.41,1.86-2.2,2.72-3.87,4.26-8.87,4.89-12.82,1.65-3.77-3.09-4.25-8.51-.95-13,3.85-5.23,7.94-10.29,11.8-15.52,41.49-56.34,69.23-118.46,79.41-188.06,6.61-45.2,4.46-89.84-9.33-133.43-13.4-42.35-36.48-78.63-75.34-101.8-61.43-36.63-122.72-34.04-181.92,5.8-39.91,26.86-63.88,65.25-76.48,111.17-.29,1.07-.27,2.23-.45,3.89ZM1300.42,362.98c-7.72-.04-14.45,6.59-14.49,14.27-.04,7.87,6.9,14.85,14.63,14.74,7.49-.11,14.02-6.57,14.22-14.06.21-7.84-6.59-14.91-14.36-14.95ZM1372.1,273.34c7.28.11,13.62-6.08,13.87-13.56.26-7.85-6.52-14.89-14.33-14.87-7.13.01-13.54,6.51-13.67,13.86-.14,7.65,6.46,14.45,14.13,14.57Z"/>
    <path d="M1456.73,460.66c-.56,46.89-20,84.53-54.37,115.4-21.66,19.45-46.5,34.04-72.02,47.42-20.28,10.63-36.03,25.28-47.9,44.71-6.07,9.94-13.05,19.32-22.95,26.08-8.51,5.81-17.73,9.02-28.05,9.15-20.79.27-36.93-14.76-38.28-35.56-.61-9.49,1.07-18.52,4.31-27.41,3.7-10.15,7.25-20.37,10.52-30.67,1.36-4.28,3.57-7.05,7.7-9.05,17.39-8.39,23.36-22.79,15.38-40.46-4.81-10.64-12.18-20.11-18.25-30.19-1.57-2.61-3.21-5.48-3.66-8.41-.59-3.88,1.31-7.16,5.22-8.74,3.83-1.55,7.71-.89,10.02,2.26,12.46,16.97,24.71,34.23,26.61,56.1,1.63,18.8-6.28,32.97-22.95,41.94-3.36,1.81-4.88,3.78-5.56,7.83-1.05,6.32-3.66,12.39-5.76,18.52-3.07,8.94-7.27,17.62-6.23,27.48,1.68,15.89,15.84,24.23,30.6,17.99,10.98-4.64,17.9-13.57,24.18-23.12,2.66-4.03,5.27-8.1,7.68-12.29,8.75-15.21,21.72-25.79,36.66-34.5,21.7-12.65,43.63-25.01,64.6-38.82,22.77-15,40.47-35.13,52.41-59.85,11.32-23.44,15.05-48.14,10.94-73.93-1.24-7.78.9-11.85,6.68-12.63,4.84-.65,8.86,1.65,9.63,6.5,1.29,8.03,1.93,16.16,2.84,24.25Z"/>
    <path d="M1125.85,440.72c-1.76-8.46-1.44-8.9,6.37-8.9,36.66.04,73.32.15,109.98.1,3.47,0,5.84,1.1,8.18,3.67,8.65,9.47,17.48,18.79,26.43,27.97,1.33,1.36,3.7,2.37,5.6,2.39,19.83.17,39.66.03,59.49.19,3.33.03,4.13-1.87,5.16-4.25,4.32-9.99,11.92-14.31,23.67-13.63,9.31.54,17.06,6.56,20.03,15.56,3.05,9.26,0,19.45-7.66,25.65-12.35,9.99-30.87,5.05-36.17-9.93-1.32-3.72-3.12-4.72-6.83-4.69-20,.16-40-.02-59.99.14-3.63.03-6.16-.92-8.64-3.66-8.52-9.37-17.21-18.58-26.11-27.58-1.63-1.65-4.49-2.91-6.79-2.92-35.83-.18-71.66-.12-107.48-.11-1.79,0-3.58,0-5.25,0ZM1382.36,471.16c-.05-7.78-6.23-13.94-13.96-13.91-7.87.03-13.83,6.03-13.85,13.96-.02,7.9,6.42,14.28,14.29,14.16,7.86-.12,13.57-6.12,13.52-14.21Z"/>
    <path d="M1527.85,292.25c0,13.66.07,27.33-.05,40.99-.03,3.31.5,5.24,4.26,6.52,10.67,3.62,16.67,15.13,14.54,26.57-2.08,11.21-11.5,19.31-22.75,19.58-11.52.28-21.15-7.55-23.52-19.12-2.29-11.19,3.31-22.65,13.75-26.55,4.15-1.55,5.01-3.66,4.99-7.62-.13-25.83-.04-51.66-.08-77.49,0-1.79-.1-3.79-.87-5.33-14.2-28.27-30.52-55.1-53.95-76.85-3.8-3.53-8.57-6.17-13.22-8.57-3.51-1.81-3.22-4.26-2.5-7.07.77-3.02,2.99-4.08,5.74-2.91,3.19,1.36,6.71,2.64,9.17,4.94,8.49,7.92,17.34,15.65,24.69,24.58,15.41,18.7,27.36,39.75,38.67,61.13.81,1.53,1.22,3.46,1.24,5.21.1,14,.05,27.99.05,41.99-.06,0-.11,0-.17,0ZM1537.27,361.98c-.06-7.81-6.25-14.18-13.74-14.13-7.89.06-14.02,6.46-13.88,14.49.14,7.79,6.4,14.01,13.98,13.89,7.56-.12,13.7-6.53,13.64-14.26Z"/>
    <path d="M1125.53,473.8v-8.23c1.88-.1,3.65-.28,5.42-.28,24.15-.03,48.31-.16,72.46.1,2.75.03,6.16,1.53,8.12,3.49,24.03,24.02,47.88,48.22,71.65,72.49,2.78,2.83,5.62,4.16,9.59,4.16,3.35,0,5.36-.92,7.19-3.91,5.23-8.53,16.49-12.1,26.87-9.02,9.32,2.77,16.05,12.27,15.91,22.46-.14,10.11-7.34,19.45-17.1,22.15-10.43,2.89-20.89-.86-26.05-9.73-1.64-2.81-2.75-6.09-3.36-9.29-.61-3.21-1.83-4.94-5.18-4.34-5.96,1.08-9.82-1.9-13.77-5.95-23.04-23.59-46.34-46.93-69.42-70.49-2.69-2.74-5.45-3.76-9.2-3.74-22.49.14-44.98.09-67.47.11-1.79,0-3.58,0-5.66,0ZM1333.2,554.83c-.02-7.76-6.49-14-14.46-13.93-7.36.07-13.71,6.3-13.84,13.58-.14,7.49,6.61,14.49,14.1,14.63,7.67.13,14.21-6.44,14.2-14.28Z"/>
    <path d="M1127.72,560.38c7.78,8.14,15.62,16.22,23.27,24.48.84.91.86,2.8.86,4.23.04,16.83.1,33.67-.13,50.5-.03,1.97-1.26,4.62-2.82,5.76-8.09,5.95-11.87,13.48-10.11,23.57.25,1.46.15,3,.03,4.49-.56,6.98-.35,12.35,8.23,15.82,9.64,3.9,12.74,16.44,9.14,27.34-3,9.06-13.06,15.71-22.98,15.18-10.38-.56-19.22-8.34-21.23-18.69-2.11-10.84,2.82-21.3,12.93-25.46,4.4-1.81,5.52-4.12,5.34-8.49-.32-7.82.11-15.67-.13-23.49-.11-3.52.79-6.21,3.77-8.03,8-4.87,10.32-11.87,9.65-21.08-.79-10.94-.02-21.99-.31-32.98-.06-2.38-1.28-5.08-2.78-6.98-2.67-3.38-5.66-6.68-9.09-9.25-5.72-4.28-5.78-9.79-3.63-16.91ZM1148.21,708.61c.04-7.7-6.18-14.06-13.84-14.15-7.23-.08-13.49,6.34-13.52,13.88-.03,7.66,5.89,13.9,13.32,14.02,7.82.13,14-5.92,14.04-13.76Z"/>
    <path d="M1125.47,406.88v-8.46c2.34-.1,4.45-.27,6.57-.28,25.15-.06,50.29-.03,75.44-.21,3.05-.02,6.08-1.21,9.14-1.7,1.68-.27,4.03-.92,4.97-.11,1.03.89,1.42,3.44.99,4.95-1.35,4.82-5.24,5.83-9.78,5.82-25.98-.06-51.96-.03-77.94-.03-2.97,0-5.94,0-9.39,0Z"/>
    <path d="M1199.89,501.81c-2.12,2.69-3.74,4.75-5.8,7.35-5.76-8.84-14.5-8.18-23.28-7.99-13.15.28-26.31.16-39.46.18-1.8,0-3.6-.17-5.73-.27v-7.82c1.33-.13,2.62-.35,3.9-.35,18.48,0,36.97.19,55.45,0,6.93-.07,9.59,5.87,14.92,8.9Z"/>
  </g>
  <g>
    <path class="cls-8" d="M1032.25,447.81c6.85,8.37,13.59,16.83,20.42,25.31-46.16,60.09-97.39,114.68-157.45,160.76-56.92,43.68-119.03,77.54-187,100.45-43.56,14.69-88.22,24.4-134.18,27.72-49.42,3.56-98.66,1.87-147.37-7.2-75.27-14.02-145.51-41.51-210.53-81.96-78.8-49.03-145.46-111.53-203.01-184.05-4.03-5.09-8.07-10.17-12.88-16.22,18.1-20.8,35.68-41.69,54.01-61.9,36.57-40.34,76.43-77.12,120.4-109.36,66.02-48.41,138.42-83.31,218-102.96,67.69-16.72,136.25-21.29,205.34-12.19,87.1,11.48,167.97,40.94,242.07,88.27,73.66,47.06,136.91,105.81,192.18,173.33ZM987.43,474.42c-1.41-1.78-2.21-2.83-3.05-3.84-41.2-49.3-87.05-93.61-139.07-131.52-66.57-48.52-140.14-80.83-220.87-96.93-7.31-1.46-14.72-2.33-22.09-3.48,104.35,34.4,174.1,141.48,168.19,248.31-5.3,95.66-67.56,183.27-160.19,217.97,2.27.38,3.5.91,4.6.72,5.55-.97,11.07-2.12,16.6-3.21,55.03-10.91,106.59-31.17,155.5-58.3,61.37-34.04,115.64-77.24,163.39-128.63,12.46-13.41,24.51-27.2,36.99-41.09ZM677.77,596.29c44.62-55.87,53.31-119.42,31.7-186.73-13.06-40.71-38.71-73.33-74.09-97.26-60.45-40.88-124.35-44.93-190.72-15.21-2.34,1.04-5.08,1.64-7.63,1.65-24.66.08-49.32-.01-73.98-.06-.93,0-1.86-.12-3.93-.26,27.1-27.47,58.38-46.22,93.44-59.29-5.98.39-11.84,1.11-17.62,2.18-52.77,9.75-102.79,27.53-150.57,51.77-8.45,4.3-16.78,8.85-25.1,13.4-.61.33-.68,1.64-1,2.5,1.31.65,2.58,1.79,3.92,1.87,8.94.49,17.89.89,26.84,1.01,3.87.06,7.76-.85,11.63-.8,1.42.02,2.82,1.54,4.23,2.38-1.33.83-2.6,2.24-3.99,2.38-5.83.59-11.71.74-17.56,1.17-1.8.13-3.57.84-5.37.89-12.69.4-25.41.81-38.11.98-.41.01-.81.02-1.22.02-7.97.09-14.39,3.6-20.42,8.24-4.6,3.54-9.02,7.33-13.78,10.64-5.12,3.55-10.56,6.64-15.81,10-2.61,1.67-3.92,3.66-.81,6.15,1.75.48,3.49,1.37,5.24,1.37,24.33.06,48.66-.02,72.99-.02,54.32-.02,108.64-.02,162.97-.01,2.55.01,4.48,0,5.9-3.06,4.65-10.03,14.62-14.6,25.27-12.14,10.66,2.46,17.39,11.29,17.27,22.67-.11,10.3-6.94,19.03-16.53,21.11-11.27,2.45-21.72-2.32-26.22-12.38-1.2-2.69-2.48-3.7-5.43-3.7-84.65.13-169.31.15-253.96.33-2.24,0-4.93,1.03-6.64,2.49-10.91,9.29-21.61,18.82-32.36,28.29-.91.8-1.67,1.76-3.12,3.31h5.86c28.16-.02,56.32-.06,84.48-.05,49.83.02,99.65.07,149.47.1,2.58.01,4.89.43,6.42-3.04,4.21-9.57,14.88-14.37,25.41-12.06,9.88,2.15,16.86,11.17,17,21.95.13,10.11-6.39,18.85-16.11,21.57-10.19,2.84-21.45-1.53-25.96-10.9-1.92-4.01-4.13-4.94-8.27-4.93-77.15.1-154.3.43-231.45-.34-13.86-.13-23.89,3.1-32.49,13.93-6.03,7.6-13.81,13.81-21.78,21.58,3.04.3,4.46.55,5.89.55,29.66.08,59.32.1,88.98.26,2.85,0,3.92-1.12,5.05-3.56,4.29-9.25,14.95-14.14,25.08-11.82,10.58,2.41,17.59,11.07,17.7,21.89.11,10.11-6.76,18.97-16.77,21.63-10.04,2.67-20.99-1.75-25.36-11.08-1.85-3.95-4.09-4.73-7.96-4.72-29.66.11-59.34.44-88.98-.23-9.58-.22-16.75,1.85-21.59,10.26-.16.28-.25.59-.47,1.12.94,1.21,1.9,2.54,2.96,3.79,28.55,34,59.2,65.9,93.23,94.53,72.66,61.14,154.22,104.83,246.95,126.76,10.36,2.45,21,3.7,31.52,5.49.07.04.15.08.22.12h.22c.63.27,1.25.53,1.88.81l.24-.81h-2.12s-.11-.05-.16-.07c-.09-.02-.19-.03-.28-.05-1.9-1-3.75-2.12-5.73-2.94-100.27-41.29-160.43-139.17-151.78-247.2.79-9.91,2.3-19.75,3.48-29.58h52.08c-.48,2.03-.89,3.63-1.24,5.25-9.09,41.19-7.26,81.99,10.12,120.44,33.06,73.12,90.92,113.42,170.81,118.17,64.57,3.84,117.93-22.51,158.02-72.7ZM465.13,362.67c.12-5.65-4.57-10.67-10.11-10.83-5.41-.17-10.36,4.38-10.6,9.73-.24,5.52,4.53,10.54,10.15,10.71,5.63.16,10.45-4.23,10.56-9.61ZM399.12,419.59c5.54.08,10.36-4.89,10.31-10.65-.04-5.71-4.88-10.28-10.71-10.12-5.26.14-9.54,4.73-9.53,10.21,0,5.54,4.65,10.48,9.93,10.56ZM216.07,457.5c.01-5.47-5.01-10.39-10.67-10.45-5.22-.05-10.17,4.96-10.17,10.31,0,5.82,4.62,10.58,10.34,10.67,5.59.09,10.49-4.83,10.5-10.53Z"/>
    <path class="cls-11" d="M630.81,433.26c25.13,63.6-11.77,139.08-84.98,151.38-35.63,5.99-67.67-3.16-94.56-28.01-19.58-18.1-30.7-40.59-34.18-66.96-4.65-35.26,5.78-65.67,29.75-91.58,1.74-1.87,5.1-3.11,7.73-3.15,14.28-.26,24.38-6.53,30.44-19.51.82-1.74,2.51-3.72,4.23-4.29,28.42-9.55,56.48-8.91,84.01,3.55.11.05.15.27.42.8-18.95,4.31-28.51,16.74-30.49,35.56-49-12.98-93.25,31.21-80.99,80.37,8.58,34.41,44.01,54.44,75.86,49.73,41.02-6.08,67.86-52.6,51.22-90.47,17.84-5.18,28.61-16.54,30.69-35.48.44-.17.87-.34,1.31-.51,3.21,6.18,7,12.13,9.54,18.57Z"/>
    <path class="cls-8" d="M589.27,450.68c16.64,37.87-10.2,84.39-51.22,90.47-31.85,4.71-67.28-15.32-75.86-49.73-12.26-49.16,31.99-93.35,80.99-80.37-.37,26.6,22.72,44,46.09,39.63Z"/>
    <path class="cls-2" d="M554.2,314.85c.16,10.52-5.92,19.07-15.58,21.9-10.31,3.03-21.16-.93-26.03-10.49-2.16-4.22-4.7-4.98-8.87-4.98-87.94.07-175.88-.03-263.82.15l-.04-2.57c12.7-.17,25.42-.58,38.11-.98,1.8-.05,3.57-.76,5.37-.89,5.85-.43,11.73-.58,17.56-1.17,1.39-.14,2.66-1.55,3.99-2.38-1.41-.84-2.81-2.36-4.23-2.38-3.87-.05-7.76.86-11.63.8-8.95-.12-17.9-.52-26.84-1.01-1.34-.08-2.61-1.22-3.92-1.87,21.14-.09,42.29-.25,63.43-.27,60.96-.04,121.92-.04,182.87.04,3.76,0,6.09-.38,7.94-4.57,3.99-9.04,14.41-13.27,24.43-11.01,10.21,2.3,17.1,10.95,17.26,21.68ZM531.36,325.31c5.81-.09,10.27-4.78,10.21-10.71-.05-5.54-4.71-10.16-10.24-10.16s-10.18,4.82-10.12,10.79c.05,5.74,4.51,10.17,10.15,10.08Z"/>
    <path class="cls-3" d="M541.57,314.6c.06,5.93-4.4,10.62-10.21,10.71-5.64.09-10.1-4.34-10.15-10.08-.06-5.97,4.46-10.79,10.12-10.79s10.19,4.62,10.24,10.16Z"/>
    <path class="cls-1" d="M455.02,351.84c5.54.16,10.23,5.18,10.11,10.83-.11,5.38-4.93,9.77-10.56,9.61-5.62-.17-10.39-5.19-10.15-10.71.24-5.35,5.19-9.9,10.6-9.73Z"/>
    <path class="cls-10" d="M444.57,704.97l-.24.81c-.63-.28-1.25-.54-1.88-.81h2.12Z"/>
    <path class="cls-10" d="M442.45,704.97h-.22l.06-.07c.05.02.11.05.16.07Z"/>
    <path class="cls-8" d="M442.29,704.9l-.06.07c-.07-.04-.15-.08-.22-.12.09.02.19.03.28.05Z"/>
    <path class="cls-7" d="M409.43,408.94c.05,5.76-4.77,10.73-10.31,10.65-5.28-.08-9.93-5.02-9.93-10.56-.01-5.48,4.27-10.07,9.53-10.21,5.83-.16,10.67,4.41,10.71,10.12Z"/>
    <path class="cls-6" d="M330.78,331.7c24.82-.1,49.64-.07,75.06-.07-3.97,4.23-7.27,7.91-10.79,11.36-.81.8-2.38,1.17-3.61,1.18-23.32.03-46.65-.02-69.97-.06-.28,0-.56-.22-1.12-.44,2.26-3.47,4.35-6.99,6.78-10.25.72-.97,2.41-1.71,3.65-1.72Z"/>
    <path class="cls-5" d="M358.85,378.34c2.1.01,4.21.01,7.17.01-1.6,2.09-2.82,3.13-3.34,4.44-3.44,8.63-10.13,9.52-18.42,9.18-15.46-.62-30.96-.18-46.68-.18-.05-1-.15-1.35-.07-1.64,3.48-11.98,3.48-11.94,15.84-11.88,15.17.06,30.33.05,45.5.07Z"/>
    <path class="cls-2" d="M239.86,318.86l.04,2.57c-3.72.01-7.89,1.72-11.08,3.81-13.12,8.61-25.94,17.67-38.85,26.59-.81.56-1.44,1.38-2.15,2.08-3.11-2.49-1.8-4.48.81-6.15,5.25-3.36,10.69-6.45,15.81-10,4.76-3.31,9.18-7.1,13.78-10.64,6.03-4.64,12.45-8.15,20.42-8.24.41,0,.81,0,1.22-.02Z"/>
    <path class="cls-9" d="M205.4,447.05c5.66.06,10.68,4.98,10.67,10.45-.01,5.7-4.91,10.62-10.5,10.53-5.72-.09-10.34-4.85-10.34-10.67,0-5.35,4.95-10.36,10.17-10.31Z"/>
  </g>
</svg>