<?xml version="1.0" encoding="UTF-8"?>
<svg id="Layer_1" xmlns="http://www.w3.org/2000/svg" viewBox="0 0 1052.93 582.67">
  <defs>
    <style>
      .cls-1 {
        fill: #f6f6f6;
      }

      .cls-2 {
        fill: #313131;
      }

      .cls-3 {
        fill: #f8f8f8;
      }

      .cls-4 {
        fill: #3c3c3c;
      }

      .cls-5 {
        fill: #323232;
      }

      .cls-6 {
        fill: #f7f7f7;
      }

      .cls-7 {
        fill: #343434;
      }

      .cls-8 {
        fill: #f5f5f5;
      }

      .cls-9 {
        fill: #fcfcfc;
      }

      .cls-10 {
        fill: #b7b7b7;
      }
    </style>
  </defs>
  <path class="cls-7" d="M589.27,269.32c16.65,37.87-10.2,84.39-51.22,90.47-31.85,4.71-67.27-15.32-75.85-49.72-12.27-49.17,31.98-93.36,80.98-80.38-.37,26.6,22.73,44,46.09,39.63Z"/>
  <path class="cls-3" d="M531.33,123.08c5.53,0,10.19,4.62,10.25,10.16.06,5.93-4.41,10.62-10.21,10.71-5.65.09-10.11-4.34-10.16-10.08-.05-5.97,4.47-10.79,10.12-10.79Z"/>
  <path class="cls-10" d="M462.2,310.07c8.58,34.4,44,54.43,75.85,49.72,41.02-6.08,67.87-52.6,51.22-90.47,17.84-5.18,28.61-16.54,30.7-35.48.43-.17.87-.34,1.3-.51,3.21,6.18,7,12.13,9.55,18.57,25.13,63.6-11.78,139.08-84.99,151.38-35.63,5.99-67.66-3.16-94.55-28.01-19.59-18.1-30.71-40.59-34.19-66.96-4.65-35.26,5.78-65.67,29.76-91.58,1.73-1.87,5.09-3.11,7.72-3.15,14.28-.26,24.38-6.53,30.45-19.51.81-1.74,2.5-3.72,4.22-4.29,28.43-9.55,56.49-8.91,84.01,3.55.11.05.15.27.42.8-18.95,4.31-28.51,16.74-30.49,35.56-49-12.98-93.25,31.21-80.98,80.38Z"/>
  <path class="cls-1" d="M454.57,190.92c-5.62-.17-10.38-5.19-10.14-10.71.23-5.35,5.18-9.9,10.6-9.73,5.53.16,10.22,5.18,10.1,10.83-.11,5.38-4.93,9.77-10.56,9.61Z"/>
  <path class="cls-9" d="M444.58,523.61l-.24.81c-.64-.28-1.26-.54-1.89-.81h2.13Z"/>
  <path class="cls-9" d="M442.45,523.61h-.21l.05-.07c.05.02.11.05.16.07Z"/>
  <path class="cls-7" d="M442.29,523.54l-.05.07c-.07-.04-.15-.08-.22-.11.09.01.18.02.27.04Z"/>
  <path class="cls-5" d="M330.79,150.34c24.81-.09,49.63-.07,75.05-.07-3.97,4.23-7.27,7.91-10.78,11.36-.82.8-2.39,1.18-3.61,1.18-23.33.03-46.65-.02-69.98-.06-.28,0-.56-.22-1.12-.44,2.26-3.47,4.35-6.99,6.78-10.25.73-.97,2.41-1.71,3.66-1.72Z"/>
  <path class="cls-6" d="M409.44,227.58c.04,5.76-4.78,10.74-10.32,10.65-5.27-.08-9.92-5.02-9.93-10.56,0-5.48,4.27-10.07,9.53-10.21,5.83-.16,10.67,4.41,10.72,10.12Z"/>
  <path class="cls-7" d="M454.57,190.92c5.63.16,10.45-4.23,10.56-9.61.12-5.65-4.57-10.67-10.1-10.83-5.42-.17-10.37,4.38-10.6,9.73-.24,5.52,4.52,10.54,10.14,10.71ZM399.12,238.23c5.54.09,10.36-4.89,10.32-10.65-.05-5.71-4.89-10.28-10.72-10.12-5.26.14-9.53,4.73-9.53,10.21.01,5.54,4.66,10.48,9.93,10.56ZM195.24,276c0,5.82,4.61,10.58,10.34,10.67,5.58.09,10.49-4.83,10.5-10.52.01-5.48-5.02-10.4-10.68-10.46-5.22-.05-10.16,4.96-10.16,10.31ZM300.67,129.7c1.42.02,2.82,1.54,4.22,2.38-1.32.83-2.59,2.24-3.99,2.38-5.83.59-11.71.74-17.56,1.17-1.8.13-3.57.84-5.36.9-12.71.39-25.41.8-38.12.97-.4.01-.81.02-1.21.02-7.97.09-14.39,3.6-20.43,8.24-4.6,3.54-9.02,7.33-13.78,10.64-5.12,3.55-10.56,6.64-15.81,10-2.6,1.67-3.91,3.66-.81,6.15,1.75.48,3.5,1.37,5.24,1.37,24.33.06,48.66-.02,72.99-.02,54.32-.02,108.65-.02,162.97-.01,2.56.01,4.49-.01,5.9-3.06,4.65-10.03,14.62-14.6,25.27-12.14,10.67,2.46,17.4,11.3,17.28,22.67-.11,10.3-6.95,19.03-16.54,21.11-11.27,2.45-21.71-2.32-26.21-12.38-1.21-2.69-2.48-3.7-5.44-3.69-84.65.12-169.3.14-253.95.32-2.24,0-4.93,1.03-6.65,2.49-10.91,9.29-21.61,18.82-32.35,28.29-.91.8-1.68,1.77-3.13,3.31h5.86c28.16-.02,56.33-.06,84.49-.05,49.82.02,99.64.07,149.47.1,2.57.01,4.88.43,6.41-3.04,4.21-9.57,14.88-14.36,25.42-12.06,9.88,2.15,16.86,11.17,17,21.95.13,10.12-6.4,18.85-16.12,21.57-10.19,2.84-21.44-1.53-25.95-10.9-1.93-4.01-4.14-4.94-8.27-4.93-77.16.1-154.31.43-231.46-.34-13.85-.13-23.89,3.1-32.49,13.93-6.03,7.6-13.81,13.81-21.78,21.58,3.04.3,4.47.55,5.89.55,29.66.08,59.32.1,88.98.26,2.85.01,3.93-1.12,5.06-3.55,4.28-9.26,14.95-14.15,25.08-11.83,10.58,2.41,17.58,11.07,17.7,21.89.11,10.11-6.76,18.97-16.78,21.63-10.03,2.67-20.98-1.75-25.36-11.08-1.84-3.95-4.09-4.73-7.96-4.72-29.66.11-59.33.44-88.98-.23-9.58-.22-16.75,1.85-21.58,10.26-.16.28-.25.59-.47,1.12.93,1.21,1.9,2.54,2.95,3.8,28.55,33.99,59.2,65.89,93.23,94.52,72.66,61.14,154.23,104.84,246.95,126.76,10.36,2.45,21.01,3.7,31.53,5.5.07.03.15.07.22.11h.21c.63.27,1.25.53,1.89.81l.24-.81h-2.13c-.05-.02-.11-.05-.16-.07-.09-.02-.18-.03-.27-.04-1.91-1.01-3.76-2.13-5.74-2.94-100.27-41.3-160.43-139.18-151.78-247.21.79-9.9,2.31-19.75,3.48-29.58h52.08c-.48,2.03-.88,3.63-1.24,5.25-9.08,41.19-7.26,81.99,10.12,120.44,33.06,73.12,90.93,113.42,170.81,118.17,64.57,3.84,117.93-22.51,158.02-72.7,44.62-55.87,53.31-119.42,31.71-186.73-13.07-40.71-38.71-73.33-74.09-97.26-60.45-40.88-124.36-44.93-190.73-15.21-2.33,1.04-5.07,1.64-7.63,1.65-24.66.08-49.32-.01-73.98-.06-.93,0-1.85-.12-3.93-.26,27.1-27.47,58.39-46.21,93.44-59.29-5.98.39-11.83,1.11-17.62,2.18-52.76,9.76-102.78,27.53-150.56,51.77-8.46,4.3-16.79,8.85-25.11,13.4-.6.33-.68,1.65-1,2.5,1.31.65,2.59,1.79,3.92,1.87,8.94.49,17.89.89,26.84,1.01,3.88.06,7.76-.85,11.64-.8ZM1032.25,266.45c6.85,8.37,13.59,16.83,20.43,25.31-46.17,60.09-97.4,114.68-157.45,160.77-56.92,43.67-119.04,77.53-187.01,100.45-43.56,14.68-88.22,24.39-134.18,27.71-49.42,3.56-98.65,1.87-147.37-7.2-75.27-14.02-145.5-41.51-210.53-81.96-78.8-49.03-145.46-111.53-203-184.05-4.04-5.09-8.08-10.17-12.89-16.22,18.1-20.8,35.69-41.69,54.01-61.9,36.57-40.34,76.43-77.12,120.4-109.36,66.02-48.41,138.42-83.31,218-102.96C460.35.32,528.91-4.25,598.01,4.85c87.1,11.48,167.97,40.94,242.06,88.27,73.67,47.06,136.91,105.81,192.18,173.33ZM987.43,293.06c-1.41-1.78-2.2-2.83-3.05-3.84-41.2-49.3-87.05-93.61-139.07-131.52-66.57-48.52-140.14-80.83-220.87-96.93-7.3-1.46-14.72-2.33-22.09-3.48,104.35,34.4,174.11,141.48,168.19,248.31-5.3,95.66-67.56,183.27-160.19,217.97,2.27.38,3.5.91,4.6.72,5.55-.97,11.07-2.12,16.6-3.21,55.03-10.91,106.6-31.17,155.5-58.3,61.37-34.04,115.65-77.24,163.39-128.63,12.46-13.41,24.51-27.2,36.99-41.09Z"/>
  <path class="cls-4" d="M297.51,208.79c3.48-11.98,3.49-11.94,15.85-11.88,15.16.06,30.33.05,45.49.08h7.17c-1.6,2.09-2.82,3.13-3.34,4.44-3.44,8.63-10.12,9.52-18.42,9.18-15.46-.62-30.96-.18-46.67-.18-.06-1-.16-1.35-.08-1.64Z"/>
  <path class="cls-2" d="M521.21,133.87c.05,5.74,4.51,10.17,10.16,10.08,5.8-.09,10.27-4.78,10.21-10.71-.06-5.54-4.72-10.16-10.25-10.16s-10.17,4.82-10.12,10.79ZM258.27,127.62c21.15-.09,42.29-.25,63.43-.27,60.96-.04,121.92-.04,182.88.04,3.75,0,6.09-.38,7.94-4.57,3.99-9.04,14.4-13.27,24.42-11.01,10.21,2.3,17.1,10.95,17.26,21.68.16,10.52-5.92,19.07-15.57,21.9-10.32,3.03-21.17-.93-26.04-10.48-2.15-4.23-4.69-4.99-8.87-4.99-87.94.07-175.88-.03-263.82.15l-.04-2.57c12.71-.17,25.41-.58,38.12-.97,1.79-.06,3.56-.77,5.36-.9,5.85-.43,11.73-.58,17.56-1.17,1.4-.14,2.67-1.55,3.99-2.38-1.4-.84-2.8-2.36-4.22-2.38-3.88-.05-7.76.86-11.64.8-8.95-.12-17.9-.52-26.84-1.01-1.33-.08-2.61-1.22-3.92-1.87Z"/>
  <path class="cls-2" d="M238.65,137.52c.4,0,.81-.01,1.21-.02l.04,2.57c-3.72.01-7.89,1.72-11.08,3.81-13.12,8.61-25.94,17.67-38.85,26.59-.81.56-1.43,1.38-2.15,2.08-3.1-2.49-1.79-4.48.81-6.15,5.25-3.36,10.69-6.45,15.81-10,4.76-3.31,9.18-7.1,13.78-10.64,6.04-4.64,12.46-8.15,20.43-8.24Z"/>
  <path class="cls-8" d="M195.24,276c0-5.35,4.94-10.36,10.16-10.31,5.66.06,10.69,4.98,10.68,10.46,0,5.69-4.92,10.61-10.5,10.52-5.73-.09-10.34-4.85-10.34-10.67Z"/>
</svg>